<svg xmlns="http://www.w3.org/2000/svg" version="1.1" xmlns:xlink="http://www.w3.org/1999/xlink" width="512" height="512" x="0" y="0" viewBox="0 0 64 64" style="enable-background:new 0 0 512 512" xml:space="preserve"><g><path d="M60.866 30.5a1 1 0 1 0-1.732 1l.5.866-6.927 4-4.019 2.32-2.906-4.81 4.358-4.359a8.989 8.989 0 0 0 11.148-12.031 1 1 0 0 0-1.628-.317l-3.468 3.468a1 1 0 1 0 1.414 1.414l2.288-2.287a7 7 0 1 1-5.657-5.658l-4.769 4.769a1 1 0 0 0 0 1.414l4.242 4.243a1 1 0 1 0 1.415-1.414l-3.536-3.536 5.242-5.241a1 1 0 0 0-.317-1.628 8.988 8.988 0 0 0-12.031 11.148l-2.963 2.962-2.191-3.623 1.394-.374a1 1 0 0 0 .637-1.409l-1.06-2.143 1.554-.416a1 1 0 0 0 .638-1.409l-1.058-2.138 1.554-.417a1 1 0 0 0 .707-1.225l-.732-2.731a1 1 0 1 0-1.932.517l.473 1.766-1.766.473A1 1 0 0 0 39.1 15.1l1.057 2.138-1.554.416a1 1 0 0 0-.637 1.409l1.057 2.139-.775.208-1.968-3.261a4.956 4.956 0 0 0-2.8-2.186l6.7-11.6 3.8 2.191-.126 1.846a1 1 0 0 0 2 .12L46 6.06a1 1 0 0 0-.5-.926l-5.2-3a1 1 0 0 0-1.367.366l-7.67 13.293a4.957 4.957 0 0 0-3.543 2.356l-1.569 2.6-2.646-2.649.708-.707a1 1 0 0 0 0-1.415l-.977-.976a5.992 5.992 0 0 1 4.069-3.715 1 1 0 0 0 .184-1.859l-1.189-.59a7.913 7.913 0 0 0-8.4.836l-.763-.763a1 1 0 0 0-1.414 0L12.936 11.7a1 1 0 0 0 1.414 1.414l2.085-2.085 5.657 5.656-6.364 6.365-5.657-5.65 1.45-1.451a1 1 0 1 0-1.414-1.414L7.95 16.689a1 1 0 0 0 0 1.415l.707.707-1.414 1.414-.707-.707a1 1 0 0 0-1.414 0l-2.829 2.828a1 1 0 0 0 0 1.414l7.071 7.071a1 1 0 0 0 1.414 0L13.606 28a1 1 0 0 0 0-1.414l-.707-.708 1.415-1.414.707.707a1 1 0 0 0 1.414 0l1.414-1.414L21.89 27.8l-2.052 3.4a1 1 0 0 0 1.712 1.035l7.882-13.046a3 3 0 0 1 5.136 0l21.91 36.264A3 3 0 0 1 53.91 60H46a1 1 0 0 0 0 2h7.91a5 5 0 0 0 4.279-7.586l-4.36-7.214a2.79 2.79 0 0 0 .412-.17 3 3 0 1 0-3.453-4.862L49.722 40.4s3.265-1.88 3.984-2.3a1 1 0 0 1 .759-.1.992.992 0 0 1 .607.466l4 6.929a1 1 0 0 1-.367 1.365l-1.646.951a1 1 0 0 0 1 1.732l1.645-.951a3 3 0 0 0 1.1-4.1l-4-6.929a3 3 0 0 0-.657-.775L61.5 33.6a1 1 0 0 0 .366-1.367Zm-50.795-1.79-5.657-5.657 1.415-1.414 5.656 5.661Zm1.414-4.243-2.828-2.828 1.414-1.414 2.829 2.828ZM24.614 10.3a8.011 8.011 0 0 0-2.9 3.188L19.329 11.1a5.924 5.924 0 0 1 5.285-.8Zm-5.351 12.046 2.828-2.829 2.995 2.993-2.131 3.527Zm26.126 3.437a8.779 8.779 0 0 0 2.829 2.828l-3.5 3.5-2.131-3.527Zm6.853 17.78a1 1 0 0 1 .758-.1 1 1 0 0 1 .242 1.832.954.954 0 0 1-.493.115l-.879-1.454a.937.937 0 0 1 .372-.393Z" fill="#ffffff" opacity="1" data-original="#000000"></path><path d="M35.832 32.051a3.856 3.856 0 0 0-1.044-2.851 3.839 3.839 0 0 0-5.576 0 3.856 3.856 0 0 0-1.044 2.851l.723 13.008a3.114 3.114 0 0 0 6.218 0Zm-2.72 12.9a1.114 1.114 0 0 1-2.224 0l-.723-13.008a1.838 1.838 0 1 1 3.67 0ZM32 50a3 3 0 1 0 3 3 3 3 0 0 0-3-3Zm0 4a1 1 0 1 1 1-1 1 1 0 0 1-1 1Z" fill="#ffffff" opacity="1" data-original="#000000"></path><path d="M42 60H10.09a3 3 0 0 1-2.568-4.551L19.48 35.656a1 1 0 0 0-1.711-1.035l-1.99 3.293-1.35-.78-6.927-4a1 1 0 0 0-1.366.366l-4 6.928a1 1 0 0 0 .364 1.366l8.107 4.681-4.8 7.939A5 5 0 0 0 10.09 62H42a1 1 0 0 0 0-2ZM4.366 40.562l3-5.2 1.732 1-1.5 2.6a1 1 0 1 0 1.732 1l1.5-2.6 1.732 1-1.5 2.6a1 1 0 1 0 1.732 1l1.5-2.6.451.26-3.1 5.137Z" fill="#ffffff" opacity="1" data-original="#000000"></path></g></svg>