<svg xmlns="http://www.w3.org/2000/svg" version="1.1" xmlns:xlink="http://www.w3.org/1999/xlink" width="512" height="512" x="0" y="0" viewBox="0 0 682.667 682.667" style="enable-background:new 0 0 512 512" xml:space="preserve"><g><defs><clipPath id="a" clipPathUnits="userSpaceOnUse"><path d="M0 512h512V0H0Z" fill="#ffffff" opacity="1" data-original="#000000"></path></clipPath></defs><g clip-path="url(#a)" transform="matrix(1.33333 0 0 -1.33333 0 682.667)"><path d="M0 0h204.088c15.048 0 27.395-12.329 27.395-27.416v-10.346c0-6.782-5.57-12.357-12.376-12.357H-15.048c-6.777 0-12.348 5.575-12.348 12.357v10.346C-27.396-12.329-15.076 0 0 0Z" style="stroke-width:20.176;stroke-linecap:round;stroke-linejoin:round;stroke-miterlimit:10;stroke-dasharray:none;stroke-opacity:1" transform="translate(153.956 60.12)" fill="none" stroke="#ffffff" stroke-width="20.176" stroke-linecap="round" stroke-linejoin="round" stroke-miterlimit="10" stroke-dasharray="none" stroke-opacity="" data-original="#000000" opacity="1"></path><path d="M192.809 60.119h126.382v52.734H192.809Z" style="stroke-width:20.176;stroke-linecap:round;stroke-linejoin:round;stroke-miterlimit:10;stroke-dasharray:none;stroke-opacity:1" fill="none" stroke="#ffffff" stroke-width="20.176" stroke-linecap="round" stroke-linejoin="round" stroke-miterlimit="10" stroke-dasharray="none" stroke-opacity="" data-original="#000000" opacity="1"></path><path d="M0 0h492" style="stroke-width:20.176;stroke-linecap:round;stroke-linejoin:round;stroke-miterlimit:10;stroke-dasharray:none;stroke-opacity:1" transform="translate(10 195.963)" fill="none" stroke="#ffffff" stroke-width="20.176" stroke-linecap="round" stroke-linejoin="round" stroke-miterlimit="10" stroke-dasharray="none" stroke-opacity="" data-original="#000000" opacity="1"></path><path d="M0 0h.172" style="stroke-width:20.176;stroke-linecap:round;stroke-linejoin:round;stroke-miterlimit:10;stroke-dasharray:none;stroke-opacity:1" transform="translate(300.812 154.409)" fill="none" stroke="#ffffff" stroke-width="20.176" stroke-linecap="round" stroke-linejoin="round" stroke-miterlimit="10" stroke-dasharray="none" stroke-opacity="" data-original="#000000" opacity="1"></path><path d="M0 0h-44.999" style="stroke-width:20.176;stroke-linecap:round;stroke-linejoin:round;stroke-miterlimit:10;stroke-dasharray:none;stroke-opacity:1" transform="translate(255.986 154.409)" fill="none" stroke="#ffffff" stroke-width="20.176" stroke-linecap="round" stroke-linejoin="round" stroke-miterlimit="10" stroke-dasharray="none" stroke-opacity="" data-original="#000000" opacity="1"></path><path d="M0 0a97.322 97.322 0 0 0 30.842-12.731l8.299 8.306c4.939 4.943 13.008 4.943 17.947 0L70.183-17.53c4.94-4.943 4.94-13.018 0-17.961l-8.299-8.305c5.83-9.254 10.166-19.542 12.636-30.549h11.658c6.978 0 12.693-5.719 12.693-12.702v-18.536c0-6.983-5.715-12.674-12.693-12.674H74.491a98.017 98.017 0 0 0-12.607-30.405l8.299-8.305c4.94-4.914 4.94-12.99 0-17.932l-13.095-13.105c-4.939-4.943-13.008-4.943-17.947 0l-8.299 8.277c-9.247-5.805-19.499-10.145-30.468-12.616v-11.812c0-6.983-5.715-12.702-12.693-12.702h-18.522c-6.978 0-12.693 5.719-12.693 12.702v11.812a98.007 98.007 0 0 0-30.411 12.616l-8.299-8.277c-4.939-4.943-13.008-4.943-17.948 0l-13.095 13.105c-4.91 4.942-4.91 13.018 0 17.932l8.3 8.305a97.993 97.993 0 0 0-12.607 30.405h-11.774c-6.978 0-12.664 5.691-12.664 12.674v18.536c0 6.983 5.686 12.702 12.664 12.702h11.745a98.532 98.532 0 0 0 12.435 30.261l-8.328 8.363c-4.94 4.914-4.94 12.99 0 17.932l13.095 13.105c4.939 4.943 13.008 4.943 17.919 0l8.241-8.248A98.141 98.141 0 0 0-43.879-.172v11.725c0 6.983 5.715 12.702 12.664 12.702h18.551C-5.714 24.255 0 18.536 0 11.553Z" style="stroke-width:20.176;stroke-linecap:round;stroke-linejoin:round;stroke-miterlimit:10;stroke-dasharray:none;stroke-opacity:1" transform="translate(202.142 475.67)" fill="none" stroke="#ffffff" stroke-width="20.176" stroke-linecap="round" stroke-linejoin="round" stroke-miterlimit="10" stroke-dasharray="none" stroke-opacity="" data-original="#000000" opacity="1"></path><path d="M0 0c28.803 0 52.293 23.508 52.293 52.332 0 28.795-23.49 52.303-52.293 52.303-28.774 0-52.264-23.508-52.264-52.303C-52.264 23.508-28.774 0 0 0Z" style="stroke-width:20.176;stroke-linecap:round;stroke-linejoin:round;stroke-miterlimit:10;stroke-dasharray:none;stroke-opacity:1" transform="translate(180.547 327.038)" fill="none" stroke="#ffffff" stroke-width="20.176" stroke-linecap="round" stroke-linejoin="round" stroke-miterlimit="10" stroke-dasharray="none" stroke-opacity="" data-original="#000000" opacity="1"></path><path d="M0 0h72.165" style="stroke-width:20.176;stroke-linecap:round;stroke-linejoin:round;stroke-miterlimit:10;stroke-dasharray:none;stroke-opacity:1" transform="translate(363.558 392.589)" fill="none" stroke="#ffffff" stroke-width="20.176" stroke-linecap="round" stroke-linejoin="round" stroke-miterlimit="10" stroke-dasharray="none" stroke-opacity="" data-original="#000000" opacity="1"></path><path d="M0 0v196.625c0 16.956-1.522 18.307 4.221 33.279l28.258 73.368c1.234 3.219 4.738 3.622 6.547 1.236.258-.373.488-.776.661-1.236 9.418-24.456 18.837-48.912 28.228-73.368 5.772-14.972 4.25-16.294 4.25-33.279V0" style="stroke-width:20.176;stroke-linecap:round;stroke-linejoin:round;stroke-miterlimit:10;stroke-dasharray:none;stroke-opacity:1" transform="translate(363.558 195.963)" fill="none" stroke="#ffffff" stroke-width="20.176" stroke-linecap="round" stroke-linejoin="round" stroke-miterlimit="10" stroke-dasharray="none" stroke-opacity="" data-original="#000000" opacity="1"></path><path d="M0 0h99.905M-265.57-121.648v85.812C-265.57-16.122-249.46 0-229.732 0h39.457m338.51 0h42.356c19.7 0 35.839-16.122 35.839-35.836v-261.287c0-19.714-16.139-35.835-35.839-35.835h-420.323c-19.7 0-35.838 16.121-35.838 35.835v85.611" style="stroke-width:20.176;stroke-linecap:round;stroke-linejoin:round;stroke-miterlimit:10;stroke-dasharray:none;stroke-opacity:1" transform="translate(275.57 445.812)" fill="none" stroke="#ffffff" stroke-width="20.176" stroke-linecap="round" stroke-linejoin="round" stroke-miterlimit="10" stroke-dasharray="none" stroke-opacity="" data-original="#000000" opacity="1"></path><path d="M0 0v.201" style="stroke-width:20.176;stroke-linecap:round;stroke-linejoin:round;stroke-miterlimit:10;stroke-dasharray:none;stroke-opacity:1" transform="translate(10 279.131)" fill="none" stroke="#ffffff" stroke-width="20.176" stroke-linecap="round" stroke-linejoin="round" stroke-miterlimit="10" stroke-dasharray="none" stroke-opacity="" data-original="#000000" opacity="1"></path></g></g></svg>