<svg xmlns="http://www.w3.org/2000/svg" version="1.1" xmlns:xlink="http://www.w3.org/1999/xlink" width="512" height="512" x="0" y="0" viewBox="0 0 100 100" style="enable-background:new 0 0 512 512" xml:space="preserve"><g><path d="M46.44 78.83c0-4.68 7.12-4.68 7.12 0v1.91c0 4.69-7.12 4.69-7.12 0zm10.2-41.92L80 79a.7.7 0 0 0 .74.43h9a.78.78 0 0 0 .85-.85V10.11a.82.82 0 0 0-.74-.85H10.1a.91.91 0 0 0-.85.85v4.57a2.13 2.13 0 0 1-4.25 0v-4.57A5.1 5.1 0 0 1 10.1 5h79.8a5.1 5.1 0 0 1 5.1 5.11v68.51a5.2 5.2 0 0 1-5.1 5.21h-6.06a.9.9 0 0 0-.84 1.06A7.7 7.7 0 0 1 75.77 95H24.23a7.77 7.77 0 0 1-7.33-10.11.78.78 0 0 0-.74-1.06H10.1A5.18 5.18 0 0 1 5 78.72V21.91a2.13 2.13 0 0 1 2.13-2.34h71.08c2.76 0 2.76 4.26 0 4.26H10.1a.92.92 0 0 0-.85.85v53.94a.84.84 0 0 0 .85.85h9.14A.8.8 0 0 0 20 79l23.36-42.09a7.56 7.56 0 0 1 13.28 0zM52.92 39a3.31 3.31 0 0 0-5.84 0L21.36 85.43a3.5 3.5 0 0 0 2.87 5.31h51.54a3.54 3.54 0 0 0 2.87-5.31zm31.35-15.17a2.13 2.13 0 1 1 0-4.26h2.12c2.77 0 2.77 4.26 0 4.26zm-51.54-7.45a2.13 2.13 0 0 1 0-4.25h1.81a2.13 2.13 0 0 1 0 4.25zm-17.53 0a2.13 2.13 0 0 1 0-4.25h1.7a2.13 2.13 0 1 1 0 4.25zm8.82 0a2.22 2.22 0 0 1-2.23-2.12A2.23 2.23 0 0 1 24 12.13h1.7a2.13 2.13 0 1 1 0 4.25zm22.42 35.85c0-4.68 7.12-4.68 7.12 0v16.92c0 4.68-7.12 4.68-7.12 0z" data-name="Under Construction" fill="#ffffff" opacity="1" data-original="#000000"></path></g></svg>