<?xml version="1.0" encoding="UTF-8"?><svg id="Layer_2" xmlns="http://www.w3.org/2000/svg" viewBox="0 0 627.27 624.19"><defs><style>.cls-1{fill:#fff;}</style></defs><g id="Camada_1"><path class="cls-1" d="M537.06,90.21C478.88,32.04,401.54,0,319.27,0S159.65,32.04,101.48,90.21C43.3,148.38,11.27,225.73,11.27,308c0,57.35,15.71,112.81,45.55,161.25-9.04,24.02-17.84,48.13-26.74,72.2-9.79,26.49-19.6,52.97-29.38,79.47-.38,1.04-.47,2.18-.69,3.27,1.26-.11,2.59-.01,3.78-.35,23.01-6.54,46.01-13.14,69.01-19.72,30.68-8.79,61.33-17.66,92.07-26.23,1.62-.45,3.62-.53,5.48-.23,45.43,25.13,96.59,38.34,148.92,38.34,82.27,0,159.62-32.04,217.79-90.21,58.17-58.17,90.21-135.52,90.21-217.79s-32.04-159.62-90.21-217.79ZM464.7,411.44c-3.8,7.89-10.39,13.25-17.29,18.2-16.22,11.62-34.4,18.02-54.26,15.97-11.91-1.23-23.7-5.06-35.18-8.84-19.72-6.48-39.33-13.39-57.52-23.69-23.2-13.15-43.41-30.01-61.89-49.1-20.44-21.12-37.93-44.57-53.3-69.51-10.92-17.72-18.39-37-18.71-58.2-.41-27.12,10.04-49.59,30.9-66.88,6.75-5.59,15.22-6.24,23.77-4.97,1.49.14,3.04.61,4.47.36,10.03-1.75,14.65,4.44,17.95,12.27,7.69,18.21,15.01,36.58,22.9,54.7,3.03,6.97,2.03,13.19-2.04,18.84-5.24,7.27-11.04,14.15-16.84,20.99-4.56,5.38-5.28,10.26-1.52,16.35,19.26,31.23,43.62,57.39,76.13,75.12,9.02,4.92,18.49,9.09,27.98,13.07,6.84,2.87,10.74,1.54,15.35-4.06,7.4-8.98,14.73-18.02,22.04-27.08,5.18-6.42,9.4-7.88,16.48-4.74,12.3,5.45,24.51,11.12,36.67,16.88,8.56,4.05,16.94,8.47,25.47,12.58,3.39,1.63,5.05,4.1,5.15,7.81.33,11.82-1.54,23.22-6.7,33.93Z"/></g></svg>