<?xml version="1.0" encoding="UTF-8"?><svg id="Layer_2" xmlns="http://www.w3.org/2000/svg" viewBox="0 0 800 800"><defs><style>.cls-1{fill:#fff;}</style></defs><g id="Layer_1-2"><path class="cls-1" d="M400,0C179.09,0,0,179.09,0,400s179.09,400,400,400,400-179.09,400-400S620.91,0,400,0ZM287.16,616.63c0,9-7.29,16.37-16.37,16.37h-69.52c-9,0-16.37-7.29-16.37-16.37v-291.58c0-9,7.29-16.37,16.37-16.37h69.52c9,0,16.37,7.29,16.37,16.37v291.58ZM236.02,281.21c-36.47,0-66.11-29.56-66.11-66.11s29.56-66.11,66.11-66.11,66.11,29.56,66.11,66.11-29.56,66.11-66.11,66.11ZM635.53,633h-74.64c-8.3,0-15.05-6.75-15.05-15.05v-136.79c0-20.41,5.97-89.38-53.3-89.38s-55.32,47.25-57.18,68.43v157.74c0,8.3-6.75,15.05-15.05,15.05h-72.16c-8.3,0-15.05-6.75-15.05-15.05v-294.22c0-8.3,6.75-15.05,15.05-15.05h72.16c8.3,0,15.05,6.75,15.05,15.05v25.45c17.07-25.6,42.44-45.39,96.37-45.39,119.49,0,118.87,111.65,118.87,173.02v141.13h0c0,8.3-6.75,15.05-15.05,15.05Z"/></g></svg>