<?xml version="1.0" encoding="UTF-8"?><svg id="Layer_2" xmlns="http://www.w3.org/2000/svg" viewBox="0 0 626.87 184"><defs><style>.cls-1{fill:#fff;}</style></defs><g id="Layer_1-2"><path class="cls-1" d="M278.19,35.24c0-7.43-6.48-12.38-16.38-12.38-7.81,0-13.33,3.43-13.33,8.19,0,15.05,60.39,18.86,60.39,62.29h-24.76c0-27.24-60.39-25.53-60.39-62.29,0-17.91,16.57-31.05,39.24-31.05s40,14.48,40,35.24h-24.76ZM252.29,81.15c0,8-6.29,14.1-14.48,14.1s-14.1-6.1-14.1-14.1,6.1-14.48,14.1-14.48,14.48,6.29,14.48,14.48Z"/><path class="cls-1" d="M333.82,47.62c0,12.95,9.91,22.86,22.86,22.86,9.33,0,16.95-4.95,20.57-12.38h25.91c-4.57,21.53-23.24,37.15-46.48,37.15-26.67,0-47.62-20.95-47.62-47.62S330.01,0,356.67,0c23.24,0,41.91,15.62,46.48,37.15h-25.91c-3.62-7.43-11.24-12.38-20.57-12.38-12.95,0-22.86,9.71-22.86,22.86Z"/><polygon class="cls-1" points="65.81 140.24 44.52 179.84 56.99 179.84 72.89 150.08 88.34 179.84 101.25 179.84 79.97 140.24 65.81 140.24"/><polygon class="cls-1" points="289.45 140.24 268.17 179.84 280.63 179.84 296.53 150.08 311.98 179.84 324.9 179.84 303.62 140.24 289.45 140.24"/><polygon class="cls-1" points="605.59 140.24 591.42 140.24 570.14 179.84 582.6 179.84 598.5 150.08 613.95 179.84 626.87 179.84 605.59 140.24"/><path class="cls-1" d="M141.27,158.22c2.73-1.42,4.84-4.1,4.84-8.42,0-6.2-5.86-9.56-11.27-9.56h-31.75v39.6h30.67c7.97,0,14.91-4.55,14.91-12.4,0-4.72-3.47-7.85-7.4-9.22ZM115.1,149.23h13.71c3.13,0,5.35.63,5.35,3.13s-2.05,3.36-5.58,3.36h-13.49v-6.49ZM129.38,170.79h-14.28v-7.74h14.57c3.47,0,5.97.85,5.97,3.81s-2.67,3.93-6.26,3.93Z"/><path class="cls-1" d="M483.75,153.9c0-8.71-5.8-13.66-16.61-13.66h-26.12v39.6h12.57v-30.56h12.4c3.81,0,5.86,1.48,5.86,4.21,0,3.93-3.36,4.78-6.83,4.78l-8.17-.03,16.25,21.6h14.05l-11.27-14.4c4.95-2.39,7.85-6.88,7.85-11.55Z"/><rect class="cls-1" x="200.1" y="140.24" width="12.57" height="39.6"/><polygon class="cls-1" points="230.24 164.36 230.24 140.24 218.23 140.24 218.23 179.84 230.07 179.84 254.82 155.83 254.82 179.84 266.82 179.84 266.82 140.24 254.99 140.24 230.24 164.36"/><path class="cls-1" d="M351.34,159.42c0-5.29,4.32-8.71,12.4-8.71,6.2,0,11.44,1.02,16.73,4.04v-10.98c-4.32-2.62-10.53-4.04-18.21-4.04-12.97,0-25.21,6.43-25.21,19.74s10.81,20.71,26.34,20.71c6.89,0,12.46-1.02,17.58-4.1v-11.15c-4.95,2.79-9.45,4.1-14.91,4.1-8.88,0-14.74-2.9-14.74-9.62Z"/><path class="cls-1" d="M410.98,139.73c-15.88,0-27.82,6.94-27.82,20.26s12.18,20.2,27.82,20.2,27.94-6.94,27.94-20.2-12.23-20.26-27.94-20.26ZM410.98,169.94c-8.65,0-13.6-4.21-13.6-9.96s5.01-9.9,13.6-9.9,13.43,4.44,13.43,9.9-5.01,9.96-13.43,9.96Z"/><polygon class="cls-1" points="548.44 169.6 548.44 164.08 572.33 164.08 572.33 154.58 548.44 154.58 548.44 150.48 573.19 150.48 573.19 140.24 535.98 140.24 535.98 179.84 567.63 179.84 573.19 169.6 548.44 169.6"/><path class="cls-1" d="M37.35,154.27l5.92-9.21c-10.21-6.57-25.6-7.67-35.04-2.51-5.31,2.9-8.23,7.49-8.23,12.92,0,9.24,9.58,12.41,18.03,15.21,1.02.34,2.05.68,3.08,1.03,8.14,2.81,11.16,5.01,11.16,8.13h10.95c0-12.08-12.61-16.16-18.54-18.48-5.63-2.21-13.36-3.63-13.07-6.92.37-4.23,12.33-8.36,25.74-.17Z"/><path class="cls-1" d="M6.46,171.68c-3.4,0-6.16,2.76-6.16,6.16s2.76,6.16,6.16,6.16,6.16-2.76,6.16-6.16-2.76-6.16-6.16-6.16Z"/><path class="cls-1" d="M194.6,153.9c0-8.71-5.8-13.66-16.61-13.66h-26.12v39.6h12.58v-30.56h12.4c3.81,0,5.86,1.48,5.86,4.21,0,3.93-3.36,4.78-6.83,4.78l-8.17-.03,16.25,21.6h14.05l-11.27-14.4c4.95-2.39,7.85-6.88,7.85-11.55Z"/><path class="cls-1" d="M530.33,153.9c0-8.71-5.8-13.66-16.61-13.66h-26.12v39.6h12.57v-30.56h12.4c3.81,0,5.86,1.48,5.86,4.21,0,3.93-3.36,4.78-6.83,4.78l-8.17-.03,16.25,21.6h14.05l-11.27-14.4c4.95-2.39,7.85-6.88,7.85-11.55Z"/></g></svg>