<?xml version="1.0" encoding="UTF-8"?><svg id="Layer_2" xmlns="http://www.w3.org/2000/svg" viewBox="0 0 327.6 227.9"><defs><style>.cls-1{fill:#fff;}</style></defs><g id="Layer_1-2"><polygon class="cls-1" points="296.51 227.56 309.43 227.56 288.15 187.96 273.98 187.96 252.7 227.56 265.16 227.56 281.07 197.8 296.51 227.56"/><path class="cls-1" d="M157.01,213.16c4.95-2.39,7.85-6.88,7.85-11.55,0-8.71-5.8-13.66-16.61-13.66h-26.12v39.6h12.57v-30.56h12.4c3.81,0,5.86,1.48,5.86,4.21,0,3.93-3.36,4.78-6.83,4.78l-8.17-.03,16.25,21.6h14.05l-11.27-14.4Z"/><path class="cls-1" d="M18.17,207.19c0-13.31,12.23-19.74,25.21-19.74,7.68,0,13.88,1.42,18.21,4.04v10.98c-5.29-3.02-10.53-4.04-16.73-4.04-8.08,0-12.4,3.41-12.4,8.71,0,6.71,5.86,9.62,14.74,9.62,5.46,0,9.96-1.31,14.91-4.1v11.15c-5.12,3.07-10.7,4.1-17.58,4.1-15.53,0-26.34-7.62-26.34-20.71Z"/><path class="cls-1" d="M64.27,207.7c0-13.32,11.95-20.26,27.82-20.26s27.94,6.94,27.94,20.26-12.35,20.2-27.94,20.2-27.82-6.94-27.82-20.2ZM105.52,207.7c0-5.46-5.06-9.9-13.43-9.9s-13.6,4.15-13.6,9.9,4.95,9.96,13.6,9.96,13.43-4.55,13.43-9.96Z"/><path class="cls-1" d="M217.09,187.96h37.21v10.24h-24.75v4.1h23.9v9.5h-23.9v5.52h24.75l-5.56,10.24h-31.65v-39.6Z"/><path class="cls-1" d="M203.59,213.16c4.95-2.39,7.85-6.88,7.85-11.55,0-8.71-5.8-13.66-16.61-13.66h-26.12v39.6h12.57v-30.56h12.4c3.81,0,5.86,1.48,5.86,4.21,0,3.93-3.36,4.78-6.83,4.78l-8.17-.03,16.25,21.6h14.05l-11.27-14.4Z"/><path class="cls-1" d="M125.56,35.24c0-7.43-6.48-12.38-16.38-12.38-7.81,0-13.33,3.43-13.33,8.19,0,15.05,60.39,18.86,60.39,62.29h-24.76c0-27.24-60.39-25.53-60.39-62.29C71.08,13.14,87.65,0,110.32,0s40,14.48,40,35.24h-24.76ZM99.65,81.15c0,8-6.29,14.1-14.48,14.1s-14.1-6.1-14.1-14.1,6.1-14.48,14.1-14.48,14.48,6.29,14.48,14.48Z"/><path class="cls-1" d="M181.18,47.62c0,12.95,9.91,22.86,22.86,22.86,9.33,0,16.95-4.95,20.57-12.38h25.91c-4.57,21.53-23.24,37.15-46.48,37.15-26.67,0-47.62-20.95-47.62-47.62S177.37,0,204.04,0c23.24,0,41.91,15.62,46.48,37.15h-25.91c-3.62-7.43-11.24-12.38-20.57-12.38-12.95,0-22.86,9.72-22.86,22.86Z"/><polygon class="cls-1" points="88.04 172.8 100.96 172.8 79.68 133.2 65.51 133.2 44.23 172.8 56.69 172.8 72.59 143.04 88.04 172.8"/><polygon class="cls-1" points="314.68 172.8 327.6 172.8 306.32 133.2 292.15 133.2 270.87 172.8 283.33 172.8 299.23 143.04 314.68 172.8"/><path class="cls-1" d="M102.8,133.2h31.75c5.4,0,11.27,3.36,11.27,9.56,0,4.32-2.11,7-4.84,8.42,3.93,1.37,7.4,4.49,7.4,9.22,0,7.85-6.94,12.4-14.91,12.4h-30.67v-39.6ZM114.8,142.19v6.49h13.49c3.53,0,5.58-.97,5.58-3.36s-2.22-3.13-5.35-3.13h-13.71ZM114.8,156.02v7.74h14.28c3.58,0,6.26-.85,6.26-3.93s-2.5-3.81-5.97-3.81h-14.57Z"/><path class="cls-1" d="M201.15,133.2h12.57v39.6h-12.57v-39.6Z"/><path class="cls-1" d="M269.97,133.2h-11.83l-24.75,24.13v-24.13h-12.01v39.6h11.83l24.75-24.01v24.01h12.01v-39.6Z"/><path class="cls-1" d="M186.57,158.4c4.95-2.39,7.85-6.88,7.85-11.55,0-8.71-5.8-13.66-16.61-13.66h-26.12v39.6h12.57v-30.56h12.4c3.81,0,5.86,1.48,5.86,4.21,0,3.93-3.36,4.78-6.83,4.78l-8.17-.03,16.25,21.6h14.05l-11.27-14.4Z"/><path class="cls-1" d="M37.35,147.23l5.92-9.21c-10.21-6.57-25.6-7.67-35.04-2.51-5.31,2.9-8.23,7.49-8.23,12.92,0,9.24,9.58,12.41,18.03,15.21,1.02.34,2.05.68,3.08,1.03,8.14,2.81,11.16,5.01,11.16,8.13h10.95c0-12.08-12.61-16.16-18.54-18.48-5.63-2.21-13.36-3.63-13.07-6.92.37-4.23,12.33-8.36,25.74-.17Z"/><path class="cls-1" d="M6.46,164.63c-3.4,0-6.16,2.76-6.16,6.16s2.76,6.16,6.16,6.16,6.16-2.76,6.16-6.16-2.76-6.16-6.16-6.16Z"/></g></svg>